<svg width="44" height="44" viewBox="0 0 44 44" fill="none" xmlns="http://www.w3.org/2000/svg">
<g clip-path="url(#clip0_9_10)">
<path d="M22 13.6727C17.4436 13.6727 13.8274 17.3662 13.8274 21.8453C13.8274 26.3244 17.368 30.1727 22 30.1727C26.632 30.1727 30.1727 26.4791 30.1727 22C30.1727 17.5209 26.5547 13.6727 22 13.6727ZM43.768 29.8203L38.3367 21.9227L43.7637 14.1015C44.3078 13.3173 43.8586 12.2332 42.9193 12.063L33.5521 10.3701L31.8591 1.00289C31.6894 0.0635937 30.6053 -0.385859 29.8207 0.158641L22 5.66242L14.1024 0.235125C13.3182 -0.309031 12.2341 0.139992 12.0639 1.07938L10.45 10.45L1.07938 12.143C0.140343 12.3062 -0.309024 13.3977 0.235132 14.1023L5.66243 22L0.235476 29.8212C-0.30868 30.6054 0.140515 31.6895 1.07973 31.8596L10.4469 33.5526L12.1399 42.9198C12.3096 43.8591 13.3937 44.3085 14.1783 43.764L22 38.3367L29.8212 43.7637C30.6055 44.308 31.6903 43.8588 31.8596 42.9196L33.5526 33.5524L42.9198 31.8594C43.8625 31.6937 44.3094 30.6023 43.768 29.8203ZM22 32.9227C15.9251 32.9227 11.0774 27.9976 11.0774 22C11.0774 15.9251 16.0024 11.0773 22 11.0773C27.9976 11.0773 32.9227 16.0016 32.9227 22C32.9227 28.0758 28.0758 32.9227 22 32.9227Z" fill="#FFA600"/>
</g>
<defs>
<clipPath id="clip0_9_10">
<rect width="44" height="44" fill="white"/>
</clipPath>
</defs>
</svg>
