<svg width="44" height="36" viewBox="0 0 44 36" fill="none" xmlns="http://www.w3.org/2000/svg">
<path d="M6.61375 13.7569C6.60481 13.5712 6.6 13.3856 6.6 13.2C6.6 7.1225 11.5225 2.2 17.6 2.2C21.6769 2.2 25.2313 4.41718 27.1356 7.71375C28.1806 6.95062 29.4456 6.6 30.8 6.6C34.4438 6.6 37.4 9.49437 37.4 13.2C37.4 14.0387 37.2419 14.8362 36.96 15.5787C40.975 16.39 44 19.9444 44 24.2C44 29.0606 40.0606 33 35.2 33H9.9C4.43231 33 0 28.5656 0 23.1C0 18.7825 2.76169 15.1112 6.61375 13.7569Z" fill="black" fill-opacity="0.6"/>
</svg>
