<svg width="44" height="44" viewBox="0 0 44 44" fill="none" xmlns="http://www.w3.org/2000/svg">
<path d="M35.7498 11C35.6961 11 35.6531 11.0215 35.6101 11.0215C35.7068 10.5703 35.7498 10.1062 35.7498 9.625C35.7498 5.82227 32.6775 2.75 28.9521 2.75C26.8363 2.75 24.9775 3.7168 23.7873 5.2207C22.0342 2.12695 18.8459 0 15.1248 0C9.82244 0 5.49978 4.30805 5.49978 9.625C5.49978 10.248 5.56434 10.8496 5.68248 11.4512C2.3854 12.5297 0.000244141 15.5977 0.000244141 19.25C0.000244141 23.8047 3.61821 27.5 8.1729 27.5H35.5956C40.3045 27.5 43.9998 23.8047 43.9998 19.25C43.9998 14.6953 40.3045 11 35.7498 11ZM17.0842 30.4133C16.0383 29.9648 14.824 30.4482 14.3754 31.4952L10.3277 41.1202C9.87924 42.1678 10.364 43.3812 11.4114 43.8298C11.524 43.9484 11.8763 44 12.1427 44C12.943 44 13.7042 43.5327 14.0402 42.7513L18.0879 33.1263C18.6138 32.0805 18.0552 30.8687 17.0842 30.4133ZM7.00025 30.4133C5.95267 29.9648 4.74009 30.4482 4.2915 31.4952L0.243843 41.1202C-0.281751 42.1695 0.203022 43.3813 1.25017 43.8367C1.51486 43.9484 1.78986 44 2.06142 44C2.86167 44 3.62291 43.5327 3.95892 42.7513L8.00658 33.1263C8.53251 32.0805 8.04697 30.8687 7.00025 30.4133ZM27.1646 30.4133C26.117 29.9648 24.9045 30.4482 24.4559 31.4952L20.4082 41.1202C19.9597 42.1678 20.4445 43.3812 21.4919 43.8298C21.6818 43.9484 21.9568 44 22.2318 44C23.0321 44 23.7933 43.5327 24.1293 42.7513L28.177 33.1263C28.6256 32.0805 28.2131 30.8687 27.1646 30.4133ZM37.2537 30.4133C36.2078 29.9648 34.9953 30.4482 34.5449 31.4952L30.4973 41.1202C30.0488 42.1678 30.5335 43.3812 31.581 43.8298C31.7623 43.9484 32.0373 44 32.2349 44C33.0352 44 33.7964 43.5327 34.1324 42.7513L38.1801 33.1263C38.7834 32.0805 38.2935 30.8687 37.2537 30.4133Z" fill="black" fill-opacity="0.7"/>
</svg>
