<svg width="44" height="36" viewBox="0 0 44 36" fill="none" xmlns="http://www.w3.org/2000/svg">
<g clip-path="url(#clip0_9_54)">
<path d="M6.60001 14.3C6.60001 10.0471 10.0471 6.66184 14.2381 6.66184C17.8578 6.66184 20.8725 9.16778 21.6975 12.5345C23.0106 11.9006 24.3856 11.55 25.7881 11.55C26.1049 11.55 26.4173 11.5762 26.7286 11.6064L28.3876 9.21661C28.7413 8.7069 28.4492 8.0018 27.8387 7.8918L21.8075 6.79109L20.7075 0.701904C20.5975 0.0910599 19.8963 -0.200715 19.3806 0.153004L14.3 3.68084L9.21939 0.152935C8.70376 -0.200784 8.00251 0.0911287 7.89251 0.701904L6.79114 6.79109L0.701951 7.89247C0.0911761 8.00247 -0.200874 8.71059 0.152845 9.21934L3.67972 14.3027L0.152914 19.3806C-0.200805 19.8903 0.0912105 20.5954 0.701745 20.7054L6.79114 21.8075L7.89183 27.8973C8.0021 28.5079 8.7072 28.8 9.21664 28.4461L9.95295 27.9352C10.1403 25.5186 11.3176 23.3626 13.1038 21.8783C9.42564 21.2987 6.60001 18.1431 6.60001 14.3ZM8.80001 14.3C8.80001 17.3373 11.2626 19.8 14.3 19.8C14.9689 19.8 15.6014 19.6627 16.1948 19.4441C16.6761 17.1307 17.95 15.1232 19.7402 13.7076C19.4425 10.9518 17.1325 8.79997 14.3 8.79997C11.2613 8.79997 8.80001 11.2612 8.80001 14.3ZM39.545 22.385C39.5536 22.2475 39.5962 22.1276 39.5962 21.9987C39.5962 19.5663 37.6197 17.5987 35.2581 17.5987C34.3905 17.5987 33.5909 17.8564 32.9117 18.2861C31.7003 15.6131 29.0273 13.8105 25.9061 13.8105C21.6608 13.8105 18.2061 17.2562 18.2061 21.4486C18.2061 21.6548 18.2578 21.8434 18.2664 22.0411C14.8543 22.2989 12.1559 25.117 12.1559 28.5978C12.0381 32.2437 14.9944 35.2 18.6381 35.2H37.3381C40.9819 35.2 43.9381 32.2444 43.9381 28.6007C43.9381 25.7056 42.1231 23.2787 39.545 22.385Z" fill="black" fill-opacity="0.7"/>
</g>
<defs>
<clipPath id="clip0_9_54">
<rect width="44" height="35.2" fill="white"/>
</clipPath>
</defs>
</svg>
