<svg width="40" height="40" viewBox="0 0 40 40" fill="none" xmlns="http://www.w3.org/2000/svg">
<path d="M0 8C0 3.58172 3.58172 0 8 0H32C36.4183 0 40 3.58172 40 8V32C40 36.4183 36.4183 40 32 40H8C3.58172 40 0 36.4183 0 32V8Z" fill="white"/>
<path d="M15.1289 28.8072C14.6387 31.0619 16.8257 32.9725 18.9942 32.1839C20.3483 31.6915 21.8363 31.7152 23.1741 32.2503L25.3842 33.1343C26.7217 33.6693 28.2436 33.4438 29.3685 32.5439L32.5255 30.0183C33.4575 29.2727 34 28.1439 34 26.9504V23.9568C34 22.8468 32.9376 22.0455 31.8703 22.3504C30.4534 22.7552 28.9386 22.1841 28.1417 20.9445L25.4768 16.799C24.5146 15.3022 22.4686 14.9671 21.0791 16.0786L18.3342 18.2746C17.6172 18.8482 17.1193 19.651 16.9243 20.5483L15.1289 28.8072Z" fill="#FF886A"/>
<path d="M14 10C14 12.2091 12.2091 14 10 14C7.79086 14 6 12.2091 6 10C6 7.79086 7.79086 6 10 6C12.2091 6 14 7.79086 14 10Z" fill="#FF886A"/>
</svg>
