<svg width="64" height="64" viewBox="0 0 64 64" fill="none" xmlns="http://www.w3.org/2000/svg">
<path d="M8 13.3333C8 10.3878 10.3878 8 13.3333 8H50.6667C53.6122 8 56 10.3878 56 13.3333V18.6667C56 21.6122 53.6122 24 50.6667 24C53.6122 24 56 26.3878 56 29.3333V34.6667C56 37.6122 53.6122 40 50.6667 40C53.6122 40 56 42.3878 56 45.3333V50.6667C56 53.6122 53.6122 56 50.6667 56H13.3333C10.3878 56 8 53.6122 8 50.6667V45.3333C8 42.3878 10.3878 40 13.3333 40C10.3878 40 8 37.6122 8 34.6667V29.3333C8 26.3878 10.3878 24 13.3333 24C10.3878 24 8 21.6122 8 18.6667V13.3333Z" fill="#2389DA"/>
</svg>
